G04 PROTEUS GERBER X2 FILE*
%TF.GenerationSoftware,Labcenter,Proteus,8.5-SP0-Build22067*%
%TF.CreationDate,2018-12-10T22:23:18+00:00*%
%TF.FileFunction,AssemblyDrawing,Top*%
%TF.FilePolarity,Positive*%
%TF.Part,Single*%
%FSLAX45Y45*%
%MOMM*%
G01*
%TA.AperFunction,Profile*%
%ADD17C,0.203200*%
%ADD27C,0.692330*%
%TA.AperFunction,Material*%
%ADD71C,0.203200*%
%ADD28C,0.990600*%
%ADD29C,0.316990*%
%ADD72C,0.164590*%
%ADD73C,0.106680*%
%ADD30C,0.209660*%
%ADD31C,0.098630*%
%ADD32C,0.091830*%
%ADD33C,0.084540*%
D17*
X-7750000Y-5500000D02*
X+7250000Y-5500000D01*
X+7250000Y+4500000D01*
X-7750000Y+4500000D01*
X-7750000Y-5500000D01*
X-7058660Y-1026160D02*
X-2212340Y-1026160D01*
X-2212340Y+3820160D01*
X-7058660Y+3820160D01*
X-7058660Y-1026160D01*
D27*
X-6297092Y+1189301D02*
X-6297092Y+1604699D01*
X-6089393Y+1397000D01*
X-5881694Y+1604699D01*
X-5881694Y+1189301D01*
X-5743228Y+1189301D02*
X-5743228Y+1466233D01*
X-5604762Y+1604699D01*
X-5466296Y+1604699D01*
X-5327830Y+1466233D01*
X-5327830Y+1189301D01*
X-5743228Y+1327767D02*
X-5327830Y+1327767D01*
X-5189364Y+1604699D02*
X-4773966Y+1604699D01*
X-4981665Y+1604699D02*
X-4981665Y+1189301D01*
X-4635500Y+1189301D02*
X-4635500Y+1604699D01*
X-4289335Y+1604699D01*
X-4220102Y+1535466D01*
X-4220102Y+1466233D01*
X-4289335Y+1397000D01*
X-4635500Y+1397000D01*
X-4289335Y+1397000D02*
X-4220102Y+1327767D01*
X-4220102Y+1189301D01*
X-4012403Y+1604699D02*
X-3735471Y+1604699D01*
X-3873937Y+1604699D02*
X-3873937Y+1189301D01*
X-4012403Y+1189301D02*
X-3735471Y+1189301D01*
X-3527772Y+1258534D02*
X-3458539Y+1189301D01*
X-3181607Y+1189301D01*
X-3112374Y+1258534D01*
X-3112374Y+1327767D01*
X-3181607Y+1397000D01*
X-3458539Y+1397000D01*
X-3527772Y+1466233D01*
X-3527772Y+1535466D01*
X-3458539Y+1604699D01*
X-3181607Y+1604699D01*
X-3112374Y+1535466D01*
D71*
X+3238500Y-2550160D02*
X+4889500Y-2550160D01*
X+4889500Y+2550160D01*
X+3238500Y+2550160D01*
X+3238500Y-2550160D01*
D28*
X+3766820Y-792480D02*
X+4262120Y-792480D01*
X+4361180Y-693420D01*
X+4361180Y-297180D01*
X+4262120Y-198120D01*
X+3766820Y-198120D01*
X+3964940Y+198120D02*
X+3766820Y+396240D01*
X+4361180Y+396240D01*
D71*
X+5577840Y+3037840D02*
X+6614160Y+3037840D01*
X+6614160Y+3566160D01*
X+5577840Y+3566160D01*
X+5577840Y+3037840D01*
D29*
X+5842407Y+3397097D02*
X+6032601Y+3206902D01*
X+5842407Y+3206902D02*
X+6032601Y+3397097D01*
X+6159398Y+3333699D02*
X+6222796Y+3397097D01*
X+6222796Y+3206902D01*
D71*
X+5577840Y+2148840D02*
X+6106160Y+2148840D01*
X+6106160Y+2423160D01*
X+5577840Y+2423160D01*
X+5577840Y+2148840D01*
D72*
X+5809081Y+2253081D02*
X+5792622Y+2236622D01*
X+5743245Y+2236622D01*
X+5710327Y+2269540D01*
X+5710327Y+2302459D01*
X+5743245Y+2335377D01*
X+5792622Y+2335377D01*
X+5809081Y+2318918D01*
X+5874918Y+2302459D02*
X+5907836Y+2335377D01*
X+5907836Y+2236622D01*
D71*
X+6466840Y+2148840D02*
X+6995160Y+2148840D01*
X+6995160Y+2423160D01*
X+6466840Y+2423160D01*
X+6466840Y+2148840D01*
D72*
X+6698081Y+2253081D02*
X+6681622Y+2236622D01*
X+6632245Y+2236622D01*
X+6599327Y+2269540D01*
X+6599327Y+2302459D01*
X+6632245Y+2335377D01*
X+6681622Y+2335377D01*
X+6698081Y+2318918D01*
X+6747459Y+2318918D02*
X+6763918Y+2335377D01*
X+6813295Y+2335377D01*
X+6829754Y+2318918D01*
X+6829754Y+2302459D01*
X+6813295Y+2286000D01*
X+6763918Y+2286000D01*
X+6747459Y+2269540D01*
X+6747459Y+2236622D01*
X+6829754Y+2236622D01*
D71*
X-596900Y+3975100D02*
X+596900Y+3975100D01*
X+596900Y+4152900D01*
X-596900Y+4152900D01*
X-596900Y+3975100D01*
D73*
X-85344Y+4031996D02*
X-85344Y+4096004D01*
X-32004Y+4096004D01*
X-21336Y+4085336D01*
X-21336Y+4074668D01*
X-32004Y+4064000D01*
X-85344Y+4064000D01*
X-32004Y+4064000D02*
X-21336Y+4053332D01*
X-21336Y+4031996D01*
X+21336Y+4074668D02*
X+42672Y+4096004D01*
X+42672Y+4031996D01*
D71*
X-596900Y+3594100D02*
X+596900Y+3594100D01*
X+596900Y+3771900D01*
X-596900Y+3771900D01*
X-596900Y+3594100D01*
D73*
X-85344Y+3650996D02*
X-85344Y+3715004D01*
X-32004Y+3715004D01*
X-21336Y+3704336D01*
X-21336Y+3693668D01*
X-32004Y+3683000D01*
X-85344Y+3683000D01*
X-32004Y+3683000D02*
X-21336Y+3672332D01*
X-21336Y+3650996D01*
X+10668Y+3704336D02*
X+21336Y+3715004D01*
X+53340Y+3715004D01*
X+64008Y+3704336D01*
X+64008Y+3693668D01*
X+53340Y+3683000D01*
X+21336Y+3683000D01*
X+10668Y+3672332D01*
X+10668Y+3650996D01*
X+64008Y+3650996D01*
D71*
X-596900Y+3213100D02*
X+596900Y+3213100D01*
X+596900Y+3390900D01*
X-596900Y+3390900D01*
X-596900Y+3213100D01*
D73*
X-85344Y+3269996D02*
X-85344Y+3334004D01*
X-32004Y+3334004D01*
X-21336Y+3323336D01*
X-21336Y+3312668D01*
X-32004Y+3302000D01*
X-85344Y+3302000D01*
X-32004Y+3302000D02*
X-21336Y+3291332D01*
X-21336Y+3269996D01*
X+10668Y+3323336D02*
X+21336Y+3334004D01*
X+53340Y+3334004D01*
X+64008Y+3323336D01*
X+64008Y+3312668D01*
X+53340Y+3302000D01*
X+64008Y+3291332D01*
X+64008Y+3280664D01*
X+53340Y+3269996D01*
X+21336Y+3269996D01*
X+10668Y+3280664D01*
X+32004Y+3302000D02*
X+53340Y+3302000D01*
D71*
X-596900Y+2832100D02*
X+596900Y+2832100D01*
X+596900Y+3009900D01*
X-596900Y+3009900D01*
X-596900Y+2832100D01*
D73*
X-85344Y+2888996D02*
X-85344Y+2953004D01*
X-32004Y+2953004D01*
X-21336Y+2942336D01*
X-21336Y+2931668D01*
X-32004Y+2921000D01*
X-85344Y+2921000D01*
X-32004Y+2921000D02*
X-21336Y+2910332D01*
X-21336Y+2888996D01*
X+64008Y+2910332D02*
X+0Y+2910332D01*
X+42672Y+2953004D01*
X+42672Y+2888996D01*
D71*
X-596900Y+2451100D02*
X+596900Y+2451100D01*
X+596900Y+2628900D01*
X-596900Y+2628900D01*
X-596900Y+2451100D01*
D73*
X-85344Y+2507996D02*
X-85344Y+2572004D01*
X-32004Y+2572004D01*
X-21336Y+2561336D01*
X-21336Y+2550668D01*
X-32004Y+2540000D01*
X-85344Y+2540000D01*
X-32004Y+2540000D02*
X-21336Y+2529332D01*
X-21336Y+2507996D01*
X+64008Y+2572004D02*
X+10668Y+2572004D01*
X+10668Y+2550668D01*
X+53340Y+2550668D01*
X+64008Y+2540000D01*
X+64008Y+2518664D01*
X+53340Y+2507996D01*
X+21336Y+2507996D01*
X+10668Y+2518664D01*
D71*
X-596900Y+2070100D02*
X+596900Y+2070100D01*
X+596900Y+2247900D01*
X-596900Y+2247900D01*
X-596900Y+2070100D01*
D73*
X-85344Y+2126996D02*
X-85344Y+2191004D01*
X-32004Y+2191004D01*
X-21336Y+2180336D01*
X-21336Y+2169668D01*
X-32004Y+2159000D01*
X-85344Y+2159000D01*
X-32004Y+2159000D02*
X-21336Y+2148332D01*
X-21336Y+2126996D01*
X+64008Y+2180336D02*
X+53340Y+2191004D01*
X+21336Y+2191004D01*
X+10668Y+2180336D01*
X+10668Y+2137664D01*
X+21336Y+2126996D01*
X+53340Y+2126996D01*
X+64008Y+2137664D01*
X+64008Y+2148332D01*
X+53340Y+2159000D01*
X+10668Y+2159000D01*
D71*
X-596900Y+1689100D02*
X+596900Y+1689100D01*
X+596900Y+1866900D01*
X-596900Y+1866900D01*
X-596900Y+1689100D01*
D73*
X-85344Y+1745996D02*
X-85344Y+1810004D01*
X-32004Y+1810004D01*
X-21336Y+1799336D01*
X-21336Y+1788668D01*
X-32004Y+1778000D01*
X-85344Y+1778000D01*
X-32004Y+1778000D02*
X-21336Y+1767332D01*
X-21336Y+1745996D01*
X+10668Y+1810004D02*
X+64008Y+1810004D01*
X+64008Y+1799336D01*
X+10668Y+1745996D01*
D71*
X-596900Y+1308100D02*
X+596900Y+1308100D01*
X+596900Y+1485900D01*
X-596900Y+1485900D01*
X-596900Y+1308100D01*
D73*
X-85344Y+1364996D02*
X-85344Y+1429004D01*
X-32004Y+1429004D01*
X-21336Y+1418336D01*
X-21336Y+1407668D01*
X-32004Y+1397000D01*
X-85344Y+1397000D01*
X-32004Y+1397000D02*
X-21336Y+1386332D01*
X-21336Y+1364996D01*
X+21336Y+1397000D02*
X+10668Y+1407668D01*
X+10668Y+1418336D01*
X+21336Y+1429004D01*
X+53340Y+1429004D01*
X+64008Y+1418336D01*
X+64008Y+1407668D01*
X+53340Y+1397000D01*
X+21336Y+1397000D01*
X+10668Y+1386332D01*
X+10668Y+1375664D01*
X+21336Y+1364996D01*
X+53340Y+1364996D01*
X+64008Y+1375664D01*
X+64008Y+1386332D01*
X+53340Y+1397000D01*
D71*
X-6233160Y-4127500D02*
X-3926840Y-4127500D01*
X-3926840Y-3238500D01*
X-6233160Y-3238500D01*
X-6233160Y-4127500D01*
D30*
X-5918660Y-3620100D02*
X-5792861Y-3620100D01*
X-5855761Y-3620100D02*
X-5855761Y-3745899D01*
X-5750928Y-3745899D02*
X-5750928Y-3620100D01*
X-5646096Y-3620100D01*
X-5625129Y-3641067D01*
X-5625129Y-3662033D01*
X-5646096Y-3683000D01*
X-5750928Y-3683000D01*
X-5646096Y-3683000D02*
X-5625129Y-3703966D01*
X-5625129Y-3745899D01*
X-5583196Y-3745899D02*
X-5583196Y-3662033D01*
X-5541263Y-3620100D01*
X-5499330Y-3620100D01*
X-5457397Y-3662033D01*
X-5457397Y-3745899D01*
X-5583196Y-3703966D02*
X-5457397Y-3703966D01*
X-5415464Y-3745899D02*
X-5415464Y-3620100D01*
X-5289665Y-3745899D01*
X-5289665Y-3620100D01*
X-5247732Y-3724933D02*
X-5226766Y-3745899D01*
X-5142900Y-3745899D01*
X-5121933Y-3724933D01*
X-5121933Y-3703966D01*
X-5142900Y-3683000D01*
X-5226766Y-3683000D01*
X-5247732Y-3662033D01*
X-5247732Y-3641067D01*
X-5226766Y-3620100D01*
X-5142900Y-3620100D01*
X-5121933Y-3641067D01*
X-5059034Y-3620100D02*
X-4975168Y-3620100D01*
X-5017101Y-3620100D02*
X-5017101Y-3745899D01*
X-5059034Y-3745899D02*
X-4975168Y-3745899D01*
X-4912268Y-3724933D02*
X-4891302Y-3745899D01*
X-4807436Y-3745899D01*
X-4786469Y-3724933D01*
X-4786469Y-3703966D01*
X-4807436Y-3683000D01*
X-4891302Y-3683000D01*
X-4912268Y-3662033D01*
X-4912268Y-3641067D01*
X-4891302Y-3620100D01*
X-4807436Y-3620100D01*
X-4786469Y-3641067D01*
X-4744536Y-3620100D02*
X-4618737Y-3620100D01*
X-4681637Y-3620100D02*
X-4681637Y-3745899D01*
X-4576804Y-3662033D02*
X-4534871Y-3620100D01*
X-4492938Y-3620100D01*
X-4451005Y-3662033D01*
X-4451005Y-3703966D01*
X-4492938Y-3745899D01*
X-4534871Y-3745899D01*
X-4576804Y-3703966D01*
X-4576804Y-3662033D01*
X-4409072Y-3745899D02*
X-4409072Y-3620100D01*
X-4304240Y-3620100D01*
X-4283273Y-3641067D01*
X-4283273Y-3662033D01*
X-4304240Y-3683000D01*
X-4409072Y-3683000D01*
X-4304240Y-3683000D02*
X-4283273Y-3703966D01*
X-4283273Y-3745899D01*
D71*
X-6184900Y-2628900D02*
X-6007100Y-2628900D01*
X-6007100Y-1435100D01*
X-6184900Y-1435100D01*
X-6184900Y-2628900D01*
D73*
X-6063996Y-2160016D02*
X-6128004Y-2160016D01*
X-6128004Y-2106676D01*
X-6117336Y-2096008D01*
X-6106668Y-2096008D01*
X-6096000Y-2106676D01*
X-6096000Y-2160016D01*
X-6096000Y-2106676D02*
X-6085332Y-2096008D01*
X-6063996Y-2096008D01*
X-6106668Y-2053336D02*
X-6128004Y-2032000D01*
X-6063996Y-2032000D01*
X-6074664Y-1989328D02*
X-6117336Y-1989328D01*
X-6128004Y-1978660D01*
X-6128004Y-1935988D01*
X-6117336Y-1925320D01*
X-6074664Y-1925320D01*
X-6063996Y-1935988D01*
X-6063996Y-1978660D01*
X-6074664Y-1989328D01*
X-6063996Y-1989328D02*
X-6128004Y-1925320D01*
D71*
X-5803900Y-2628900D02*
X-5626100Y-2628900D01*
X-5626100Y-1435100D01*
X-5803900Y-1435100D01*
X-5803900Y-2628900D01*
D73*
X-5682996Y-2160016D02*
X-5747004Y-2160016D01*
X-5747004Y-2106676D01*
X-5736336Y-2096008D01*
X-5725668Y-2096008D01*
X-5715000Y-2106676D01*
X-5715000Y-2160016D01*
X-5715000Y-2106676D02*
X-5704332Y-2096008D01*
X-5682996Y-2096008D01*
X-5725668Y-2053336D02*
X-5747004Y-2032000D01*
X-5682996Y-2032000D01*
X-5725668Y-1967992D02*
X-5747004Y-1946656D01*
X-5682996Y-1946656D01*
D71*
X-5549900Y-2628900D02*
X-5372100Y-2628900D01*
X-5372100Y-1435100D01*
X-5549900Y-1435100D01*
X-5549900Y-2628900D01*
D73*
X-5428996Y-2160016D02*
X-5493004Y-2160016D01*
X-5493004Y-2106676D01*
X-5482336Y-2096008D01*
X-5471668Y-2096008D01*
X-5461000Y-2106676D01*
X-5461000Y-2160016D01*
X-5461000Y-2106676D02*
X-5450332Y-2096008D01*
X-5428996Y-2096008D01*
X-5471668Y-2053336D02*
X-5493004Y-2032000D01*
X-5428996Y-2032000D01*
X-5482336Y-1978660D02*
X-5493004Y-1967992D01*
X-5493004Y-1935988D01*
X-5482336Y-1925320D01*
X-5471668Y-1925320D01*
X-5461000Y-1935988D01*
X-5461000Y-1967992D01*
X-5450332Y-1978660D01*
X-5428996Y-1978660D01*
X-5428996Y-1925320D01*
D71*
X-5295900Y-2628900D02*
X-5118100Y-2628900D01*
X-5118100Y-1435100D01*
X-5295900Y-1435100D01*
X-5295900Y-2628900D01*
D73*
X-5174996Y-2160016D02*
X-5239004Y-2160016D01*
X-5239004Y-2106676D01*
X-5228336Y-2096008D01*
X-5217668Y-2096008D01*
X-5207000Y-2106676D01*
X-5207000Y-2160016D01*
X-5207000Y-2106676D02*
X-5196332Y-2096008D01*
X-5174996Y-2096008D01*
X-5217668Y-2053336D02*
X-5239004Y-2032000D01*
X-5174996Y-2032000D01*
X-5228336Y-1978660D02*
X-5239004Y-1967992D01*
X-5239004Y-1935988D01*
X-5228336Y-1925320D01*
X-5217668Y-1925320D01*
X-5207000Y-1935988D01*
X-5196332Y-1925320D01*
X-5185664Y-1925320D01*
X-5174996Y-1935988D01*
X-5174996Y-1967992D01*
X-5185664Y-1978660D01*
X-5207000Y-1957324D02*
X-5207000Y-1935988D01*
D71*
X-5041900Y-2628900D02*
X-4864100Y-2628900D01*
X-4864100Y-1435100D01*
X-5041900Y-1435100D01*
X-5041900Y-2628900D01*
D73*
X-4920996Y-2160016D02*
X-4985004Y-2160016D01*
X-4985004Y-2106676D01*
X-4974336Y-2096008D01*
X-4963668Y-2096008D01*
X-4953000Y-2106676D01*
X-4953000Y-2160016D01*
X-4953000Y-2106676D02*
X-4942332Y-2096008D01*
X-4920996Y-2096008D01*
X-4963668Y-2053336D02*
X-4985004Y-2032000D01*
X-4920996Y-2032000D01*
X-4942332Y-1925320D02*
X-4942332Y-1989328D01*
X-4985004Y-1946656D01*
X-4920996Y-1946656D01*
D71*
X-4787900Y-2628900D02*
X-4610100Y-2628900D01*
X-4610100Y-1435100D01*
X-4787900Y-1435100D01*
X-4787900Y-2628900D01*
D73*
X-4666996Y-2160016D02*
X-4731004Y-2160016D01*
X-4731004Y-2106676D01*
X-4720336Y-2096008D01*
X-4709668Y-2096008D01*
X-4699000Y-2106676D01*
X-4699000Y-2160016D01*
X-4699000Y-2106676D02*
X-4688332Y-2096008D01*
X-4666996Y-2096008D01*
X-4709668Y-2053336D02*
X-4731004Y-2032000D01*
X-4666996Y-2032000D01*
X-4731004Y-1925320D02*
X-4731004Y-1978660D01*
X-4709668Y-1978660D01*
X-4709668Y-1935988D01*
X-4699000Y-1925320D01*
X-4677664Y-1925320D01*
X-4666996Y-1935988D01*
X-4666996Y-1967992D01*
X-4677664Y-1978660D01*
D71*
X-4533900Y-2628900D02*
X-4356100Y-2628900D01*
X-4356100Y-1435100D01*
X-4533900Y-1435100D01*
X-4533900Y-2628900D01*
D73*
X-4412996Y-2160016D02*
X-4477004Y-2160016D01*
X-4477004Y-2106676D01*
X-4466336Y-2096008D01*
X-4455668Y-2096008D01*
X-4445000Y-2106676D01*
X-4445000Y-2160016D01*
X-4445000Y-2106676D02*
X-4434332Y-2096008D01*
X-4412996Y-2096008D01*
X-4455668Y-2053336D02*
X-4477004Y-2032000D01*
X-4412996Y-2032000D01*
X-4466336Y-1925320D02*
X-4477004Y-1935988D01*
X-4477004Y-1967992D01*
X-4466336Y-1978660D01*
X-4423664Y-1978660D01*
X-4412996Y-1967992D01*
X-4412996Y-1935988D01*
X-4423664Y-1925320D01*
X-4434332Y-1925320D01*
X-4445000Y-1935988D01*
X-4445000Y-1978660D01*
D71*
X-4279900Y-2628900D02*
X-4102100Y-2628900D01*
X-4102100Y-1435100D01*
X-4279900Y-1435100D01*
X-4279900Y-2628900D01*
D73*
X-4158996Y-2160016D02*
X-4223004Y-2160016D01*
X-4223004Y-2106676D01*
X-4212336Y-2096008D01*
X-4201668Y-2096008D01*
X-4191000Y-2106676D01*
X-4191000Y-2160016D01*
X-4191000Y-2106676D02*
X-4180332Y-2096008D01*
X-4158996Y-2096008D01*
X-4201668Y-2053336D02*
X-4223004Y-2032000D01*
X-4158996Y-2032000D01*
X-4223004Y-1978660D02*
X-4223004Y-1925320D01*
X-4212336Y-1925320D01*
X-4158996Y-1978660D01*
D71*
X+1132840Y-4836160D02*
X+1661160Y-4836160D01*
X+1661160Y-4561840D01*
X+1132840Y-4561840D01*
X+1132840Y-4836160D01*
D72*
X+1265327Y-4748378D02*
X+1265327Y-4649623D01*
X+1347622Y-4649623D01*
X+1364081Y-4666082D01*
X+1364081Y-4682541D01*
X+1347622Y-4699000D01*
X+1364081Y-4715460D01*
X+1364081Y-4731919D01*
X+1347622Y-4748378D01*
X+1265327Y-4748378D01*
X+1265327Y-4699000D02*
X+1347622Y-4699000D01*
X+1429918Y-4682541D02*
X+1462836Y-4649623D01*
X+1462836Y-4748378D01*
D71*
X+4514340Y-4701160D02*
X+5106160Y-4701160D01*
X+5106160Y-4109340D01*
X+4514340Y-4109340D01*
X+4514340Y-4701160D01*
D31*
X+4612980Y-4434841D02*
X+4612980Y-4375660D01*
X+4662297Y-4375660D01*
X+4672161Y-4385523D01*
X+4672161Y-4395387D01*
X+4662297Y-4405250D01*
X+4672161Y-4415114D01*
X+4672161Y-4424978D01*
X+4662297Y-4434841D01*
X+4612980Y-4434841D01*
X+4612980Y-4405250D02*
X+4662297Y-4405250D01*
X+4691888Y-4375660D02*
X+4691888Y-4424978D01*
X+4701751Y-4434841D01*
X+4741205Y-4434841D01*
X+4751069Y-4424978D01*
X+4751069Y-4375660D01*
X+4770796Y-4375660D02*
X+4829977Y-4375660D01*
X+4800386Y-4375660D02*
X+4800386Y-4434841D01*
X+4849704Y-4395387D02*
X+4869431Y-4375660D01*
X+4889158Y-4375660D01*
X+4908885Y-4395387D01*
X+4908885Y-4415114D01*
X+4889158Y-4434841D01*
X+4869431Y-4434841D01*
X+4849704Y-4415114D01*
X+4849704Y-4395387D01*
X+4928612Y-4434841D02*
X+4928612Y-4375660D01*
X+4987793Y-4434841D01*
X+4987793Y-4375660D01*
D71*
X+2951100Y-3402900D02*
X+4144900Y-3402900D01*
X+4144900Y-3225100D01*
X+2951100Y-3225100D01*
X+2951100Y-3402900D01*
D32*
X+3107216Y-3341549D02*
X+3107216Y-3286451D01*
X+3153131Y-3286451D01*
X+3162314Y-3295634D01*
X+3162314Y-3304817D01*
X+3153131Y-3314000D01*
X+3107216Y-3314000D01*
X+3153131Y-3314000D02*
X+3162314Y-3323183D01*
X+3162314Y-3341549D01*
X+3235778Y-3341549D02*
X+3180680Y-3341549D01*
X+3180680Y-3286451D01*
X+3235778Y-3286451D01*
X+3180680Y-3314000D02*
X+3217412Y-3314000D01*
X+3254144Y-3332366D02*
X+3263327Y-3341549D01*
X+3300059Y-3341549D01*
X+3309242Y-3332366D01*
X+3309242Y-3323183D01*
X+3300059Y-3314000D01*
X+3263327Y-3314000D01*
X+3254144Y-3304817D01*
X+3254144Y-3295634D01*
X+3263327Y-3286451D01*
X+3300059Y-3286451D01*
X+3309242Y-3295634D01*
X+3382706Y-3341549D02*
X+3327608Y-3341549D01*
X+3327608Y-3286451D01*
X+3382706Y-3286451D01*
X+3327608Y-3314000D02*
X+3364340Y-3314000D01*
X+3401072Y-3286451D02*
X+3456170Y-3286451D01*
X+3428621Y-3286451D02*
X+3428621Y-3341549D01*
X+3548000Y-3341549D02*
X+3548000Y-3286451D01*
X+3584732Y-3286451D01*
X+3603098Y-3304817D01*
X+3603098Y-3323183D01*
X+3584732Y-3341549D01*
X+3548000Y-3341549D01*
X+3630647Y-3286451D02*
X+3667379Y-3286451D01*
X+3649013Y-3286451D02*
X+3649013Y-3341549D01*
X+3630647Y-3341549D02*
X+3667379Y-3341549D01*
X+3694928Y-3341549D02*
X+3694928Y-3286451D01*
X+3740843Y-3286451D01*
X+3750026Y-3295634D01*
X+3750026Y-3304817D01*
X+3740843Y-3314000D01*
X+3694928Y-3314000D01*
X+3740843Y-3314000D02*
X+3750026Y-3323183D01*
X+3750026Y-3341549D01*
X+3823490Y-3341549D02*
X+3768392Y-3341549D01*
X+3768392Y-3286451D01*
X+3823490Y-3286451D01*
X+3768392Y-3314000D02*
X+3805124Y-3314000D01*
X+3841856Y-3341549D02*
X+3841856Y-3286451D01*
X+3896954Y-3341549D01*
X+3896954Y-3286451D01*
X+3970418Y-3332366D02*
X+3961235Y-3341549D01*
X+3933686Y-3341549D01*
X+3915320Y-3323183D01*
X+3915320Y-3304817D01*
X+3933686Y-3286451D01*
X+3961235Y-3286451D01*
X+3970418Y-3295634D01*
D71*
X+4499100Y-3505900D02*
X+5692900Y-3505900D01*
X+5692900Y-3328100D01*
X+4499100Y-3328100D01*
X+4499100Y-3505900D01*
D73*
X+4711952Y-3449004D02*
X+4711952Y-3384996D01*
X+4765292Y-3384996D01*
X+4775960Y-3395664D01*
X+4775960Y-3406332D01*
X+4765292Y-3417000D01*
X+4775960Y-3427668D01*
X+4775960Y-3438336D01*
X+4765292Y-3449004D01*
X+4711952Y-3449004D01*
X+4711952Y-3417000D02*
X+4765292Y-3417000D01*
X+4797296Y-3384996D02*
X+4797296Y-3438336D01*
X+4807964Y-3449004D01*
X+4850636Y-3449004D01*
X+4861304Y-3438336D01*
X+4861304Y-3384996D01*
X+4882640Y-3384996D02*
X+4946648Y-3384996D01*
X+4914644Y-3384996D02*
X+4914644Y-3449004D01*
X+4967984Y-3406332D02*
X+4989320Y-3384996D01*
X+5010656Y-3384996D01*
X+5031992Y-3406332D01*
X+5031992Y-3427668D01*
X+5010656Y-3449004D01*
X+4989320Y-3449004D01*
X+4967984Y-3427668D01*
X+4967984Y-3406332D01*
X+5053328Y-3449004D02*
X+5053328Y-3384996D01*
X+5117336Y-3449004D01*
X+5117336Y-3384996D01*
X+5224016Y-3438336D02*
X+5234684Y-3449004D01*
X+5277356Y-3449004D01*
X+5288024Y-3438336D01*
X+5288024Y-3427668D01*
X+5277356Y-3417000D01*
X+5234684Y-3417000D01*
X+5224016Y-3406332D01*
X+5224016Y-3395664D01*
X+5234684Y-3384996D01*
X+5277356Y-3384996D01*
X+5288024Y-3395664D01*
X+5373368Y-3449004D02*
X+5309360Y-3449004D01*
X+5309360Y-3384996D01*
X+5373368Y-3384996D01*
X+5309360Y-3417000D02*
X+5352032Y-3417000D01*
X+5458712Y-3438336D02*
X+5448044Y-3449004D01*
X+5416040Y-3449004D01*
X+5394704Y-3427668D01*
X+5394704Y-3406332D01*
X+5416040Y-3384996D01*
X+5448044Y-3384996D01*
X+5458712Y-3395664D01*
D71*
X+3117340Y-4701160D02*
X+3709160Y-4701160D01*
X+3709160Y-4109340D01*
X+3117340Y-4109340D01*
X+3117340Y-4701160D01*
D33*
X+3210342Y-4430613D02*
X+3210342Y-4379886D01*
X+3252614Y-4379886D01*
X+3261069Y-4388341D01*
X+3261069Y-4396795D01*
X+3252614Y-4405250D01*
X+3261069Y-4413704D01*
X+3261069Y-4422159D01*
X+3252614Y-4430613D01*
X+3210342Y-4430613D01*
X+3210342Y-4405250D02*
X+3252614Y-4405250D01*
X+3277978Y-4379886D02*
X+3277978Y-4422159D01*
X+3286432Y-4430613D01*
X+3320250Y-4430613D01*
X+3328705Y-4422159D01*
X+3328705Y-4379886D01*
X+3345614Y-4379886D02*
X+3396341Y-4379886D01*
X+3370977Y-4379886D02*
X+3370977Y-4430613D01*
X+3413250Y-4379886D02*
X+3463977Y-4379886D01*
X+3438613Y-4379886D02*
X+3438613Y-4430613D01*
X+3480886Y-4396795D02*
X+3497795Y-4379886D01*
X+3514704Y-4379886D01*
X+3531613Y-4396795D01*
X+3531613Y-4413704D01*
X+3514704Y-4430613D01*
X+3497795Y-4430613D01*
X+3480886Y-4413704D01*
X+3480886Y-4396795D01*
X+3548522Y-4430613D02*
X+3548522Y-4379886D01*
X+3599249Y-4430613D01*
X+3599249Y-4379886D01*
M02*
