G04 PROTEUS GERBER X2 FILE*
%TF.GenerationSoftware,Labcenter,Proteus,8.5-SP0-Build22067*%
%TF.CreationDate,2018-12-10T22:23:18+00:00*%
%TF.FileFunction,Copper,L1,Top*%
%TF.FilePolarity,Positive*%
%TF.Part,Single*%
%FSLAX45Y45*%
%MOMM*%
G01*
%TA.AperFunction,Conductor*%
%ADD10C,0.762000*%
%TA.AperFunction,ViaPad*%
%ADD11C,1.016000*%
%TA.AperFunction,ComponentPad*%
%ADD12R,2.032000X2.032000*%
%ADD13R,1.270000X1.270000*%
%ADD14C,1.270000*%
%ADD15C,2.032000*%
%ADD16C,1.778000*%
%TA.AperFunction,Profile*%
%ADD17C,0.203200*%
D10*
X-4445000Y-2750000D02*
X-2500000Y-2750000D01*
X-5721004Y-2113665D02*
X-5741192Y-2113665D01*
X-6391355Y-1463502D01*
X-6391355Y-759574D01*
X-6391355Y+101761D01*
X-6058137Y+434979D01*
X-5500000Y+993116D01*
X-5500000Y+1000000D01*
X-5572693Y+3076969D02*
X-4372905Y+3076969D01*
X-4365055Y+3084819D01*
X-1000000Y+2500000D02*
X-849000Y+2500000D01*
X-508000Y+2159000D01*
X-4186562Y-1207448D02*
X-1834711Y-1207448D01*
X-1825157Y-1197894D01*
X-3500000Y-3500000D02*
X-3500000Y-4750000D01*
X+5000000Y-3750000D02*
X+5271000Y-3750000D01*
X+5604000Y-3417000D01*
D11*
X-4445000Y-2750000D03*
X-2500000Y-2750000D03*
X-5721004Y-2113665D03*
X-5500000Y+1000000D03*
X-5572693Y+3076969D03*
X-4365055Y+3084819D03*
X-1000000Y+2500000D03*
X-4186562Y-1207448D03*
X-1825157Y-1197894D03*
X-3500000Y-3500000D03*
X-3500000Y-4750000D03*
X+5000000Y-3750000D03*
D12*
X-6477000Y+2286000D03*
X-6477000Y+2032000D03*
X-6477000Y+1778000D03*
X-6477000Y+1524000D03*
X-6477000Y+1270000D03*
X-6477000Y+1016000D03*
X-6477000Y+762000D03*
X-6477000Y+508000D03*
X-2877820Y+2286000D03*
X-2877820Y+2032000D03*
X-2877820Y+1778000D03*
X-2877820Y+1524000D03*
X-2877820Y+1270000D03*
X-2877820Y+1016000D03*
X-2877820Y+762000D03*
X-2877820Y+508000D03*
D13*
X+4826000Y-2413000D03*
D14*
X+4826000Y-2159000D03*
X+4826000Y-1905000D03*
X+4826000Y-1651000D03*
X+4826000Y-1397000D03*
X+4826000Y-1143000D03*
X+4826000Y-889000D03*
X+4826000Y-635000D03*
X+4826000Y-381000D03*
X+4826000Y-127000D03*
X+4826000Y+127000D03*
X+4826000Y+381000D03*
X+4826000Y+635000D03*
X+4826000Y+889000D03*
X+4826000Y+1143000D03*
X+4826000Y+1397000D03*
X+4826000Y+1651000D03*
X+4826000Y+1905000D03*
X+4826000Y+2159000D03*
X+4826000Y+2413000D03*
X+3302000Y+2413000D03*
X+3302000Y+2159000D03*
X+3302000Y+1905000D03*
X+3302000Y+1651000D03*
X+3302000Y+1397000D03*
X+3302000Y+1143000D03*
X+3302000Y+889000D03*
X+3302000Y+635000D03*
X+3302000Y+381000D03*
X+3302000Y+127000D03*
X+3302000Y-127000D03*
X+3302000Y-381000D03*
X+3302000Y-635000D03*
X+3302000Y-889000D03*
X+3302000Y-1143000D03*
X+3302000Y-1397000D03*
X+3302000Y-1651000D03*
X+3302000Y-1905000D03*
X+3302000Y-2159000D03*
X+3302000Y-2413000D03*
D15*
X+6350000Y+3302000D03*
X+5842000Y+3302000D03*
D16*
X+5715000Y+2286000D03*
X+5969000Y+2286000D03*
X+6604000Y+2286000D03*
X+6858000Y+2286000D03*
X-508000Y+4064000D03*
X+508000Y+4064000D03*
X-508000Y+3683000D03*
X+508000Y+3683000D03*
X-508000Y+3302000D03*
X+508000Y+3302000D03*
X-508000Y+2921000D03*
X+508000Y+2921000D03*
X-508000Y+2540000D03*
X+508000Y+2540000D03*
X-508000Y+2159000D03*
X+508000Y+2159000D03*
X-508000Y+1778000D03*
X+508000Y+1778000D03*
X-508000Y+1397000D03*
X+508000Y+1397000D03*
D13*
X-6096000Y-4064000D03*
D14*
X-5842000Y-4064000D03*
X-5588000Y-4064000D03*
X-5334000Y-4064000D03*
X-5080000Y-4064000D03*
X-4826000Y-4064000D03*
X-4572000Y-4064000D03*
X-4318000Y-4064000D03*
X-4064000Y-4064000D03*
X-4064000Y-3302000D03*
X-4318000Y-3302000D03*
X-4572000Y-3302000D03*
X-4826000Y-3302000D03*
X-5080000Y-3302000D03*
X-5334000Y-3302000D03*
X-5588000Y-3302000D03*
X-5842000Y-3302000D03*
X-6096000Y-3302000D03*
D16*
X-6096000Y-2540000D03*
X-6096000Y-1524000D03*
X-5715000Y-2540000D03*
X-5715000Y-1524000D03*
X-5461000Y-2540000D03*
X-5461000Y-1524000D03*
X-5207000Y-2540000D03*
X-5207000Y-1524000D03*
X-4953000Y-2540000D03*
X-4953000Y-1524000D03*
X-4699000Y-2540000D03*
X-4699000Y-1524000D03*
X-4445000Y-2540000D03*
X-4445000Y-1524000D03*
X-4191000Y-2540000D03*
X-4191000Y-1524000D03*
D12*
X+1270000Y-4699000D03*
X+1524000Y-4699000D03*
X+4715000Y-4437000D03*
X+4969000Y-4437000D03*
D16*
X+3040000Y-3314000D03*
X+4056000Y-3314000D03*
X+4588000Y-3417000D03*
X+5604000Y-3417000D03*
D12*
X+3318000Y-4437000D03*
X+3572000Y-4437000D03*
D17*
X-7750000Y-5500000D02*
X+7250000Y-5500000D01*
X+7250000Y+4500000D01*
X-7750000Y+4500000D01*
X-7750000Y-5500000D01*
M02*
