G04 PROTEUS GERBER X2 FILE*
%TF.GenerationSoftware,Labcenter,Proteus,8.5-SP0-Build22067*%
%TF.CreationDate,2018-12-10T22:23:18+00:00*%
%TF.FileFunction,Legend,Top*%
%TF.FilePolarity,Positive*%
%TF.Part,Single*%
%FSLAX45Y45*%
%MOMM*%
G01*
%TA.AperFunction,NonMaterial*%
%ADD70C,0.203200*%
%TA.AperFunction,Profile*%
%ADD17C,0.203200*%
%TA.AperFunction,Material*%
%ADD71C,0.203200*%
D70*
X-8000000Y+4500000D02*
X-8000000Y-5500000D01*
X-8000000Y+4500000D02*
X-8127000Y+4373000D01*
X-8000000Y+4500000D02*
X-7873000Y+4373000D01*
X-8000000Y-5500000D02*
X-7873000Y-5373000D01*
X-8000000Y-5500000D02*
X-8127000Y-5373000D01*
X-7968250Y-500000D02*
X-7968359Y-497366D01*
X-7969249Y-492097D01*
X-7971111Y-486828D01*
X-7974154Y-481559D01*
X-7978809Y-476357D01*
X-7984078Y-472531D01*
X-7989347Y-470091D01*
X-7994616Y-468710D01*
X-7999885Y-468250D01*
X-8000000Y-468250D01*
X-8031750Y-500000D02*
X-8031641Y-497366D01*
X-8030751Y-492097D01*
X-8028889Y-486828D01*
X-8025846Y-481559D01*
X-8021191Y-476357D01*
X-8015922Y-472531D01*
X-8010653Y-470091D01*
X-8005384Y-468710D01*
X-8000115Y-468250D01*
X-8000000Y-468250D01*
X-8031750Y-500000D02*
X-8031641Y-502634D01*
X-8030751Y-507903D01*
X-8028889Y-513172D01*
X-8025846Y-518441D01*
X-8021191Y-523643D01*
X-8015922Y-527469D01*
X-8010653Y-529909D01*
X-8005384Y-531290D01*
X-8000115Y-531750D01*
X-8000000Y-531750D01*
X-7968250Y-500000D02*
X-7968359Y-502634D01*
X-7969249Y-507903D01*
X-7971111Y-513172D01*
X-7974154Y-518441D01*
X-7978809Y-523643D01*
X-7984078Y-527469D01*
X-7989347Y-529909D01*
X-7994616Y-531290D01*
X-7999885Y-531750D01*
X-8000000Y-531750D01*
X-7898400Y-214250D02*
X-7867920Y-246000D01*
X-7959360Y-246000D01*
X-7944120Y-309500D02*
X-7883160Y-309500D01*
X-7867920Y-325375D01*
X-7867920Y-388875D01*
X-7883160Y-404750D01*
X-7944120Y-404750D01*
X-7959360Y-388875D01*
X-7959360Y-325375D01*
X-7944120Y-309500D01*
X-7959360Y-309500D02*
X-7867920Y-404750D01*
X-7944120Y-436500D02*
X-7883160Y-436500D01*
X-7867920Y-452375D01*
X-7867920Y-515875D01*
X-7883160Y-531750D01*
X-7944120Y-531750D01*
X-7959360Y-515875D01*
X-7959360Y-452375D01*
X-7944120Y-436500D01*
X-7959360Y-436500D02*
X-7867920Y-531750D01*
X-7959360Y-563500D02*
X-7898400Y-563500D01*
X-7913640Y-563500D02*
X-7898400Y-579375D01*
X-7928880Y-611125D01*
X-7898400Y-642875D01*
X-7913640Y-658750D01*
X-7959360Y-658750D01*
X-7959360Y-690500D02*
X-7898400Y-690500D01*
X-7913640Y-690500D02*
X-7898400Y-706375D01*
X-7928880Y-738125D01*
X-7898400Y-769875D01*
X-7913640Y-785750D01*
X-7959360Y-785750D01*
X-7750000Y+5500000D02*
X+7250000Y+5500000D01*
X-7750000Y+5500000D02*
X-7623000Y+5373000D01*
X-7750000Y+5500000D02*
X-7623000Y+5627000D01*
X+7250000Y+5500000D02*
X+7123000Y+5627000D01*
X+7250000Y+5500000D02*
X+7123000Y+5373000D01*
X-218250Y+5500000D02*
X-218359Y+5502634D01*
X-219249Y+5507903D01*
X-221111Y+5513172D01*
X-224154Y+5518441D01*
X-228809Y+5523643D01*
X-234078Y+5527469D01*
X-239347Y+5529909D01*
X-244616Y+5531290D01*
X-249885Y+5531750D01*
X-250000Y+5531750D01*
X-281750Y+5500000D02*
X-281641Y+5502634D01*
X-280751Y+5507903D01*
X-278889Y+5513172D01*
X-275846Y+5518441D01*
X-271191Y+5523643D01*
X-265922Y+5527469D01*
X-260653Y+5529909D01*
X-255384Y+5531290D01*
X-250115Y+5531750D01*
X-250000Y+5531750D01*
X-281750Y+5500000D02*
X-281641Y+5497366D01*
X-280751Y+5492097D01*
X-278889Y+5486828D01*
X-275846Y+5481559D01*
X-271191Y+5476357D01*
X-265922Y+5472531D01*
X-260653Y+5470091D01*
X-255384Y+5468710D01*
X-250115Y+5468250D01*
X-250000Y+5468250D01*
X-218250Y+5500000D02*
X-218359Y+5497366D01*
X-219249Y+5492097D01*
X-221111Y+5486828D01*
X-224154Y+5481559D01*
X-228809Y+5476357D01*
X-234078Y+5472531D01*
X-239347Y+5470091D01*
X-244616Y+5468710D01*
X-249885Y+5468250D01*
X-250000Y+5468250D01*
X-535750Y+5601600D02*
X-504000Y+5632080D01*
X-504000Y+5540640D01*
X-345250Y+5632080D02*
X-424625Y+5632080D01*
X-424625Y+5601600D01*
X-361125Y+5601600D01*
X-345250Y+5586360D01*
X-345250Y+5555880D01*
X-361125Y+5540640D01*
X-408750Y+5540640D01*
X-424625Y+5555880D01*
X-313500Y+5555880D02*
X-313500Y+5616840D01*
X-297625Y+5632080D01*
X-234125Y+5632080D01*
X-218250Y+5616840D01*
X-218250Y+5555880D01*
X-234125Y+5540640D01*
X-297625Y+5540640D01*
X-313500Y+5555880D01*
X-313500Y+5540640D02*
X-218250Y+5632080D01*
X-186500Y+5540640D02*
X-186500Y+5601600D01*
X-186500Y+5586360D02*
X-170625Y+5601600D01*
X-138875Y+5571120D01*
X-107125Y+5601600D01*
X-91250Y+5586360D01*
X-91250Y+5540640D01*
X-59500Y+5540640D02*
X-59500Y+5601600D01*
X-59500Y+5586360D02*
X-43625Y+5601600D01*
X-11875Y+5571120D01*
X+19875Y+5601600D01*
X+35750Y+5586360D01*
X+35750Y+5540640D01*
D17*
X-7750000Y-5500000D02*
X+7250000Y-5500000D01*
X+7250000Y+4500000D01*
X-7750000Y+4500000D01*
X-7750000Y-5500000D01*
D71*
X-7048500Y-1016000D02*
X-2222500Y-1016000D01*
X-2222500Y+3810000D01*
X-7048500Y+3810000D01*
X-7048500Y-1016000D01*
X-6216010Y+2296000D02*
X-6216185Y+2300220D01*
X-6217607Y+2308661D01*
X-6220581Y+2317102D01*
X-6225441Y+2325543D01*
X-6232873Y+2333886D01*
X-6241314Y+2340048D01*
X-6249755Y+2343985D01*
X-6258196Y+2346224D01*
X-6266637Y+2346989D01*
X-6267000Y+2346990D01*
X-6317990Y+2296000D02*
X-6317815Y+2300220D01*
X-6316393Y+2308661D01*
X-6313419Y+2317102D01*
X-6308559Y+2325543D01*
X-6301127Y+2333886D01*
X-6292686Y+2340048D01*
X-6284245Y+2343985D01*
X-6275804Y+2346224D01*
X-6267363Y+2346989D01*
X-6267000Y+2346990D01*
X-6317990Y+2296000D02*
X-6317815Y+2291780D01*
X-6316393Y+2283339D01*
X-6313419Y+2274898D01*
X-6308559Y+2266457D01*
X-6301127Y+2258114D01*
X-6292686Y+2251952D01*
X-6284245Y+2248015D01*
X-6275804Y+2245776D01*
X-6267363Y+2245011D01*
X-6267000Y+2245010D01*
X-6216010Y+2296000D02*
X-6216185Y+2291780D01*
X-6217607Y+2283339D01*
X-6220581Y+2274898D01*
X-6225441Y+2266457D01*
X-6232873Y+2258114D01*
X-6241314Y+2251952D01*
X-6249755Y+2248015D01*
X-6258196Y+2245776D01*
X-6266637Y+2245011D01*
X-6267000Y+2245010D01*
X-5016500Y+3850640D02*
X-5016500Y+3942080D01*
X-4968875Y+3896360D01*
X-4921250Y+3942080D01*
X-4921250Y+3850640D01*
X-4889500Y+3850640D02*
X-4889500Y+3911600D01*
X-4857750Y+3942080D01*
X-4826000Y+3942080D01*
X-4794250Y+3911600D01*
X-4794250Y+3850640D01*
X-4889500Y+3881120D02*
X-4794250Y+3881120D01*
X-4762500Y+3942080D02*
X-4667250Y+3942080D01*
X-4714875Y+3942080D02*
X-4714875Y+3850640D01*
X-4635500Y+3850640D02*
X-4635500Y+3942080D01*
X-4556125Y+3942080D01*
X-4540250Y+3926840D01*
X-4540250Y+3911600D01*
X-4556125Y+3896360D01*
X-4635500Y+3896360D01*
X-4556125Y+3896360D02*
X-4540250Y+3881120D01*
X-4540250Y+3850640D01*
X-4492625Y+3942080D02*
X-4429125Y+3942080D01*
X-4460875Y+3942080D02*
X-4460875Y+3850640D01*
X-4492625Y+3850640D02*
X-4429125Y+3850640D01*
X-4381500Y+3865880D02*
X-4365625Y+3850640D01*
X-4302125Y+3850640D01*
X-4286250Y+3865880D01*
X-4286250Y+3881120D01*
X-4302125Y+3896360D01*
X-4365625Y+3896360D01*
X-4381500Y+3911600D01*
X-4381500Y+3926840D01*
X-4365625Y+3942080D01*
X-4302125Y+3942080D01*
X-4286250Y+3926840D01*
X+4064000Y-2286000D02*
X+4012248Y-2291080D01*
X+3964305Y-2305685D01*
X+3921125Y-2328862D01*
X+3883660Y-2359660D01*
X+3852862Y-2397125D01*
X+3829685Y-2440305D01*
X+3815080Y-2488248D01*
X+3810000Y-2540000D01*
X+4064000Y-2286000D02*
X+4116482Y-2291080D01*
X+4164766Y-2305685D01*
X+4207991Y-2328862D01*
X+4245292Y-2359660D01*
X+4275807Y-2397125D01*
X+4298672Y-2440305D01*
X+4313024Y-2488248D01*
X+4318000Y-2540000D01*
X+3810000Y-2540000D02*
X+3429000Y-2540000D01*
X+3429000Y+2540000D02*
X+4699000Y+2540000D01*
X+4699000Y-2540000D02*
X+4318000Y-2540000D01*
X+3429000Y-2540000D02*
X+3429000Y+2540000D01*
X+4699000Y-2540000D02*
X+4699000Y+2540000D01*
X+3937000Y-2580640D02*
X+3937000Y-2656840D01*
X+3952875Y-2672080D01*
X+4016375Y-2672080D01*
X+4032250Y-2656840D01*
X+4032250Y-2580640D01*
X+4095750Y-2611120D02*
X+4127500Y-2580640D01*
X+4127500Y-2672080D01*
X+6477000Y+3048000D02*
X+5715000Y+3048000D01*
X+5588000Y+3175000D01*
X+5588000Y+3429000D01*
X+5715000Y+3556000D01*
X+6477000Y+3556000D01*
X+6604000Y+3429000D01*
X+6604000Y+3175000D01*
X+6477000Y+3048000D01*
X+5969000Y+3007360D02*
X+6064250Y+2915920D01*
X+5969000Y+2915920D02*
X+6064250Y+3007360D01*
X+6127750Y+2976880D02*
X+6159500Y+3007360D01*
X+6159500Y+2915920D01*
X+5588000Y+2286000D02*
X+5593080Y+2311876D01*
X+5607685Y+2335848D01*
X+5630862Y+2357438D01*
X+5661660Y+2376170D01*
X+5699125Y+2391569D01*
X+5742305Y+2403158D01*
X+5790248Y+2410460D01*
X+5842000Y+2413000D01*
X+6096000Y+2286000D02*
X+6090920Y+2311876D01*
X+6076315Y+2335848D01*
X+6053138Y+2357438D01*
X+6022340Y+2376170D01*
X+5984875Y+2391569D01*
X+5941695Y+2403158D01*
X+5893752Y+2410460D01*
X+5842000Y+2413000D01*
X+5588000Y+2286000D02*
X+5593080Y+2260124D01*
X+5607685Y+2236152D01*
X+5630862Y+2214562D01*
X+5661660Y+2195830D01*
X+5699125Y+2180431D01*
X+5742305Y+2168842D01*
X+5790248Y+2161540D01*
X+5842000Y+2159000D01*
X+6096000Y+2286000D02*
X+6090920Y+2260124D01*
X+6076315Y+2236152D01*
X+6053138Y+2214562D01*
X+6022340Y+2195830D01*
X+5984875Y+2180431D01*
X+5941695Y+2168842D01*
X+5893752Y+2161540D01*
X+5842000Y+2159000D01*
X+5810250Y+2468880D02*
X+5794375Y+2453640D01*
X+5746750Y+2453640D01*
X+5715000Y+2484120D01*
X+5715000Y+2514600D01*
X+5746750Y+2545080D01*
X+5794375Y+2545080D01*
X+5810250Y+2529840D01*
X+5873750Y+2514600D02*
X+5905500Y+2545080D01*
X+5905500Y+2453640D01*
X+6477000Y+2286000D02*
X+6482080Y+2311876D01*
X+6496685Y+2335848D01*
X+6519862Y+2357438D01*
X+6550660Y+2376170D01*
X+6588125Y+2391569D01*
X+6631305Y+2403158D01*
X+6679248Y+2410460D01*
X+6731000Y+2413000D01*
X+6985000Y+2286000D02*
X+6979920Y+2311876D01*
X+6965315Y+2335848D01*
X+6942138Y+2357438D01*
X+6911340Y+2376170D01*
X+6873875Y+2391569D01*
X+6830695Y+2403158D01*
X+6782752Y+2410460D01*
X+6731000Y+2413000D01*
X+6477000Y+2286000D02*
X+6482080Y+2260124D01*
X+6496685Y+2236152D01*
X+6519862Y+2214562D01*
X+6550660Y+2195830D01*
X+6588125Y+2180431D01*
X+6631305Y+2168842D01*
X+6679248Y+2161540D01*
X+6731000Y+2159000D01*
X+6985000Y+2286000D02*
X+6979920Y+2260124D01*
X+6965315Y+2236152D01*
X+6942138Y+2214562D01*
X+6911340Y+2195830D01*
X+6873875Y+2180431D01*
X+6830695Y+2168842D01*
X+6782752Y+2161540D01*
X+6731000Y+2159000D01*
X+6699250Y+2468880D02*
X+6683375Y+2453640D01*
X+6635750Y+2453640D01*
X+6604000Y+2484120D01*
X+6604000Y+2514600D01*
X+6635750Y+2545080D01*
X+6683375Y+2545080D01*
X+6699250Y+2529840D01*
X+6746875Y+2529840D02*
X+6762750Y+2545080D01*
X+6810375Y+2545080D01*
X+6826250Y+2529840D01*
X+6826250Y+2514600D01*
X+6810375Y+2499360D01*
X+6762750Y+2499360D01*
X+6746875Y+2484120D01*
X+6746875Y+2453640D01*
X+6826250Y+2453640D01*
X-381000Y+4064000D02*
X-254000Y+4064000D01*
X-254000Y+4000500D02*
X+254000Y+4000500D01*
X+254000Y+4127500D01*
X-254000Y+4127500D01*
X-254000Y+4000500D01*
X+254000Y+4064000D02*
X+381000Y+4064000D01*
X-127000Y+4168140D02*
X-127000Y+4259580D01*
X-47625Y+4259580D01*
X-31750Y+4244340D01*
X-31750Y+4229100D01*
X-47625Y+4213860D01*
X-127000Y+4213860D01*
X-47625Y+4213860D02*
X-31750Y+4198620D01*
X-31750Y+4168140D01*
X+31750Y+4229100D02*
X+63500Y+4259580D01*
X+63500Y+4168140D01*
X-381000Y+3683000D02*
X-254000Y+3683000D01*
X-254000Y+3619500D02*
X+254000Y+3619500D01*
X+254000Y+3746500D01*
X-254000Y+3746500D01*
X-254000Y+3619500D01*
X+254000Y+3683000D02*
X+381000Y+3683000D01*
X-127000Y+3787140D02*
X-127000Y+3878580D01*
X-47625Y+3878580D01*
X-31750Y+3863340D01*
X-31750Y+3848100D01*
X-47625Y+3832860D01*
X-127000Y+3832860D01*
X-47625Y+3832860D02*
X-31750Y+3817620D01*
X-31750Y+3787140D01*
X+15875Y+3863340D02*
X+31750Y+3878580D01*
X+79375Y+3878580D01*
X+95250Y+3863340D01*
X+95250Y+3848100D01*
X+79375Y+3832860D01*
X+31750Y+3832860D01*
X+15875Y+3817620D01*
X+15875Y+3787140D01*
X+95250Y+3787140D01*
X-381000Y+3302000D02*
X-254000Y+3302000D01*
X-254000Y+3238500D02*
X+254000Y+3238500D01*
X+254000Y+3365500D01*
X-254000Y+3365500D01*
X-254000Y+3238500D01*
X+254000Y+3302000D02*
X+381000Y+3302000D01*
X-127000Y+3406140D02*
X-127000Y+3497580D01*
X-47625Y+3497580D01*
X-31750Y+3482340D01*
X-31750Y+3467100D01*
X-47625Y+3451860D01*
X-127000Y+3451860D01*
X-47625Y+3451860D02*
X-31750Y+3436620D01*
X-31750Y+3406140D01*
X+15875Y+3482340D02*
X+31750Y+3497580D01*
X+79375Y+3497580D01*
X+95250Y+3482340D01*
X+95250Y+3467100D01*
X+79375Y+3451860D01*
X+95250Y+3436620D01*
X+95250Y+3421380D01*
X+79375Y+3406140D01*
X+31750Y+3406140D01*
X+15875Y+3421380D01*
X+47625Y+3451860D02*
X+79375Y+3451860D01*
X-381000Y+2921000D02*
X-254000Y+2921000D01*
X-254000Y+2857500D02*
X+254000Y+2857500D01*
X+254000Y+2984500D01*
X-254000Y+2984500D01*
X-254000Y+2857500D01*
X+254000Y+2921000D02*
X+381000Y+2921000D01*
X-127000Y+3025140D02*
X-127000Y+3116580D01*
X-47625Y+3116580D01*
X-31750Y+3101340D01*
X-31750Y+3086100D01*
X-47625Y+3070860D01*
X-127000Y+3070860D01*
X-47625Y+3070860D02*
X-31750Y+3055620D01*
X-31750Y+3025140D01*
X+95250Y+3055620D02*
X+0Y+3055620D01*
X+63500Y+3116580D01*
X+63500Y+3025140D01*
X-381000Y+2540000D02*
X-254000Y+2540000D01*
X-254000Y+2476500D02*
X+254000Y+2476500D01*
X+254000Y+2603500D01*
X-254000Y+2603500D01*
X-254000Y+2476500D01*
X+254000Y+2540000D02*
X+381000Y+2540000D01*
X-127000Y+2644140D02*
X-127000Y+2735580D01*
X-47625Y+2735580D01*
X-31750Y+2720340D01*
X-31750Y+2705100D01*
X-47625Y+2689860D01*
X-127000Y+2689860D01*
X-47625Y+2689860D02*
X-31750Y+2674620D01*
X-31750Y+2644140D01*
X+95250Y+2735580D02*
X+15875Y+2735580D01*
X+15875Y+2705100D01*
X+79375Y+2705100D01*
X+95250Y+2689860D01*
X+95250Y+2659380D01*
X+79375Y+2644140D01*
X+31750Y+2644140D01*
X+15875Y+2659380D01*
X-381000Y+2159000D02*
X-254000Y+2159000D01*
X-254000Y+2095500D02*
X+254000Y+2095500D01*
X+254000Y+2222500D01*
X-254000Y+2222500D01*
X-254000Y+2095500D01*
X+254000Y+2159000D02*
X+381000Y+2159000D01*
X-127000Y+2263140D02*
X-127000Y+2354580D01*
X-47625Y+2354580D01*
X-31750Y+2339340D01*
X-31750Y+2324100D01*
X-47625Y+2308860D01*
X-127000Y+2308860D01*
X-47625Y+2308860D02*
X-31750Y+2293620D01*
X-31750Y+2263140D01*
X+95250Y+2339340D02*
X+79375Y+2354580D01*
X+31750Y+2354580D01*
X+15875Y+2339340D01*
X+15875Y+2278380D01*
X+31750Y+2263140D01*
X+79375Y+2263140D01*
X+95250Y+2278380D01*
X+95250Y+2293620D01*
X+79375Y+2308860D01*
X+15875Y+2308860D01*
X-381000Y+1778000D02*
X-254000Y+1778000D01*
X-254000Y+1714500D02*
X+254000Y+1714500D01*
X+254000Y+1841500D01*
X-254000Y+1841500D01*
X-254000Y+1714500D01*
X+254000Y+1778000D02*
X+381000Y+1778000D01*
X-127000Y+1882140D02*
X-127000Y+1973580D01*
X-47625Y+1973580D01*
X-31750Y+1958340D01*
X-31750Y+1943100D01*
X-47625Y+1927860D01*
X-127000Y+1927860D01*
X-47625Y+1927860D02*
X-31750Y+1912620D01*
X-31750Y+1882140D01*
X+15875Y+1973580D02*
X+95250Y+1973580D01*
X+95250Y+1958340D01*
X+15875Y+1882140D01*
X-381000Y+1397000D02*
X-254000Y+1397000D01*
X-254000Y+1333500D02*
X+254000Y+1333500D01*
X+254000Y+1460500D01*
X-254000Y+1460500D01*
X-254000Y+1333500D01*
X+254000Y+1397000D02*
X+381000Y+1397000D01*
X-127000Y+1501140D02*
X-127000Y+1592580D01*
X-47625Y+1592580D01*
X-31750Y+1577340D01*
X-31750Y+1562100D01*
X-47625Y+1546860D01*
X-127000Y+1546860D01*
X-47625Y+1546860D02*
X-31750Y+1531620D01*
X-31750Y+1501140D01*
X+31750Y+1546860D02*
X+15875Y+1562100D01*
X+15875Y+1577340D01*
X+31750Y+1592580D01*
X+79375Y+1592580D01*
X+95250Y+1577340D01*
X+95250Y+1562100D01*
X+79375Y+1546860D01*
X+31750Y+1546860D01*
X+15875Y+1531620D01*
X+15875Y+1516380D01*
X+31750Y+1501140D01*
X+79375Y+1501140D01*
X+95250Y+1516380D01*
X+95250Y+1531620D01*
X+79375Y+1546860D01*
X-6223000Y-3937000D02*
X-6223000Y-3810000D01*
X-6096000Y-3683000D02*
X-6098436Y-3657124D01*
X-6105485Y-3633152D01*
X-6116762Y-3611562D01*
X-6131878Y-3592830D01*
X-6150446Y-3577431D01*
X-6172081Y-3565842D01*
X-6196394Y-3558540D01*
X-6223000Y-3556000D01*
X-6096000Y-3683000D02*
X-6098436Y-3709606D01*
X-6105485Y-3733919D01*
X-6116762Y-3755554D01*
X-6131878Y-3774122D01*
X-6150446Y-3789238D01*
X-6172081Y-3800515D01*
X-6196394Y-3807564D01*
X-6223000Y-3810000D01*
X-6223000Y-3556000D02*
X-6223000Y-3429000D01*
X-3937000Y-3937000D02*
X-3937000Y-3429000D01*
X-6223000Y-3937000D02*
X-3937000Y-3937000D01*
X-3937000Y-3429000D02*
X-6223000Y-3429000D01*
X-6355080Y-4318000D02*
X-6355080Y-4222750D01*
X-6355080Y-4270375D02*
X-6263640Y-4270375D01*
X-6263640Y-4191000D02*
X-6355080Y-4191000D01*
X-6355080Y-4111625D01*
X-6339840Y-4095750D01*
X-6324600Y-4095750D01*
X-6309360Y-4111625D01*
X-6309360Y-4191000D01*
X-6309360Y-4111625D02*
X-6294120Y-4095750D01*
X-6263640Y-4095750D01*
X-6263640Y-4064000D02*
X-6324600Y-4064000D01*
X-6355080Y-4032250D01*
X-6355080Y-4000500D01*
X-6324600Y-3968750D01*
X-6263640Y-3968750D01*
X-6294120Y-4064000D02*
X-6294120Y-3968750D01*
X-6263640Y-3937000D02*
X-6355080Y-3937000D01*
X-6263640Y-3841750D01*
X-6355080Y-3841750D01*
X-6278880Y-3810000D02*
X-6263640Y-3794125D01*
X-6263640Y-3730625D01*
X-6278880Y-3714750D01*
X-6294120Y-3714750D01*
X-6309360Y-3730625D01*
X-6309360Y-3794125D01*
X-6324600Y-3810000D01*
X-6339840Y-3810000D01*
X-6355080Y-3794125D01*
X-6355080Y-3730625D01*
X-6339840Y-3714750D01*
X-6355080Y-3667125D02*
X-6355080Y-3603625D01*
X-6355080Y-3635375D02*
X-6263640Y-3635375D01*
X-6263640Y-3667125D02*
X-6263640Y-3603625D01*
X-6278880Y-3556000D02*
X-6263640Y-3540125D01*
X-6263640Y-3476625D01*
X-6278880Y-3460750D01*
X-6294120Y-3460750D01*
X-6309360Y-3476625D01*
X-6309360Y-3540125D01*
X-6324600Y-3556000D01*
X-6339840Y-3556000D01*
X-6355080Y-3540125D01*
X-6355080Y-3476625D01*
X-6339840Y-3460750D01*
X-6355080Y-3429000D02*
X-6355080Y-3333750D01*
X-6355080Y-3381375D02*
X-6263640Y-3381375D01*
X-6324600Y-3302000D02*
X-6355080Y-3270250D01*
X-6355080Y-3238500D01*
X-6324600Y-3206750D01*
X-6294120Y-3206750D01*
X-6263640Y-3238500D01*
X-6263640Y-3270250D01*
X-6294120Y-3302000D01*
X-6324600Y-3302000D01*
X-6263640Y-3175000D02*
X-6355080Y-3175000D01*
X-6355080Y-3095625D01*
X-6339840Y-3079750D01*
X-6324600Y-3079750D01*
X-6309360Y-3095625D01*
X-6309360Y-3175000D01*
X-6309360Y-3095625D02*
X-6294120Y-3079750D01*
X-6263640Y-3079750D01*
X-6096000Y-2413000D02*
X-6096000Y-2286000D01*
X-6159500Y-2286000D02*
X-6032500Y-2286000D01*
X-6032500Y-1778000D01*
X-6159500Y-1778000D01*
X-6159500Y-2286000D01*
X-6096000Y-1778000D02*
X-6096000Y-1651000D01*
X-6200140Y-2222500D02*
X-6291580Y-2222500D01*
X-6291580Y-2143125D01*
X-6276340Y-2127250D01*
X-6261100Y-2127250D01*
X-6245860Y-2143125D01*
X-6245860Y-2222500D01*
X-6245860Y-2143125D02*
X-6230620Y-2127250D01*
X-6200140Y-2127250D01*
X-6261100Y-2063750D02*
X-6291580Y-2032000D01*
X-6200140Y-2032000D01*
X-6215380Y-1968500D02*
X-6276340Y-1968500D01*
X-6291580Y-1952625D01*
X-6291580Y-1889125D01*
X-6276340Y-1873250D01*
X-6215380Y-1873250D01*
X-6200140Y-1889125D01*
X-6200140Y-1952625D01*
X-6215380Y-1968500D01*
X-6200140Y-1968500D02*
X-6291580Y-1873250D01*
X-5715000Y-2413000D02*
X-5715000Y-2286000D01*
X-5778500Y-2286000D02*
X-5651500Y-2286000D01*
X-5651500Y-1778000D01*
X-5778500Y-1778000D01*
X-5778500Y-2286000D01*
X-5715000Y-1778000D02*
X-5715000Y-1651000D01*
X-5819140Y-2222500D02*
X-5910580Y-2222500D01*
X-5910580Y-2143125D01*
X-5895340Y-2127250D01*
X-5880100Y-2127250D01*
X-5864860Y-2143125D01*
X-5864860Y-2222500D01*
X-5864860Y-2143125D02*
X-5849620Y-2127250D01*
X-5819140Y-2127250D01*
X-5880100Y-2063750D02*
X-5910580Y-2032000D01*
X-5819140Y-2032000D01*
X-5880100Y-1936750D02*
X-5910580Y-1905000D01*
X-5819140Y-1905000D01*
X-5461000Y-2413000D02*
X-5461000Y-2286000D01*
X-5524500Y-2286000D02*
X-5397500Y-2286000D01*
X-5397500Y-1778000D01*
X-5524500Y-1778000D01*
X-5524500Y-2286000D01*
X-5461000Y-1778000D02*
X-5461000Y-1651000D01*
X-5565140Y-2222500D02*
X-5656580Y-2222500D01*
X-5656580Y-2143125D01*
X-5641340Y-2127250D01*
X-5626100Y-2127250D01*
X-5610860Y-2143125D01*
X-5610860Y-2222500D01*
X-5610860Y-2143125D02*
X-5595620Y-2127250D01*
X-5565140Y-2127250D01*
X-5626100Y-2063750D02*
X-5656580Y-2032000D01*
X-5565140Y-2032000D01*
X-5641340Y-1952625D02*
X-5656580Y-1936750D01*
X-5656580Y-1889125D01*
X-5641340Y-1873250D01*
X-5626100Y-1873250D01*
X-5610860Y-1889125D01*
X-5610860Y-1936750D01*
X-5595620Y-1952625D01*
X-5565140Y-1952625D01*
X-5565140Y-1873250D01*
X-5207000Y-2413000D02*
X-5207000Y-2286000D01*
X-5270500Y-2286000D02*
X-5143500Y-2286000D01*
X-5143500Y-1778000D01*
X-5270500Y-1778000D01*
X-5270500Y-2286000D01*
X-5207000Y-1778000D02*
X-5207000Y-1651000D01*
X-5311140Y-2222500D02*
X-5402580Y-2222500D01*
X-5402580Y-2143125D01*
X-5387340Y-2127250D01*
X-5372100Y-2127250D01*
X-5356860Y-2143125D01*
X-5356860Y-2222500D01*
X-5356860Y-2143125D02*
X-5341620Y-2127250D01*
X-5311140Y-2127250D01*
X-5372100Y-2063750D02*
X-5402580Y-2032000D01*
X-5311140Y-2032000D01*
X-5387340Y-1952625D02*
X-5402580Y-1936750D01*
X-5402580Y-1889125D01*
X-5387340Y-1873250D01*
X-5372100Y-1873250D01*
X-5356860Y-1889125D01*
X-5341620Y-1873250D01*
X-5326380Y-1873250D01*
X-5311140Y-1889125D01*
X-5311140Y-1936750D01*
X-5326380Y-1952625D01*
X-5356860Y-1920875D02*
X-5356860Y-1889125D01*
X-4953000Y-2413000D02*
X-4953000Y-2286000D01*
X-5016500Y-2286000D02*
X-4889500Y-2286000D01*
X-4889500Y-1778000D01*
X-5016500Y-1778000D01*
X-5016500Y-2286000D01*
X-4953000Y-1778000D02*
X-4953000Y-1651000D01*
X-5057140Y-2222500D02*
X-5148580Y-2222500D01*
X-5148580Y-2143125D01*
X-5133340Y-2127250D01*
X-5118100Y-2127250D01*
X-5102860Y-2143125D01*
X-5102860Y-2222500D01*
X-5102860Y-2143125D02*
X-5087620Y-2127250D01*
X-5057140Y-2127250D01*
X-5118100Y-2063750D02*
X-5148580Y-2032000D01*
X-5057140Y-2032000D01*
X-5087620Y-1873250D02*
X-5087620Y-1968500D01*
X-5148580Y-1905000D01*
X-5057140Y-1905000D01*
X-4699000Y-2413000D02*
X-4699000Y-2286000D01*
X-4762500Y-2286000D02*
X-4635500Y-2286000D01*
X-4635500Y-1778000D01*
X-4762500Y-1778000D01*
X-4762500Y-2286000D01*
X-4699000Y-1778000D02*
X-4699000Y-1651000D01*
X-4803140Y-2222500D02*
X-4894580Y-2222500D01*
X-4894580Y-2143125D01*
X-4879340Y-2127250D01*
X-4864100Y-2127250D01*
X-4848860Y-2143125D01*
X-4848860Y-2222500D01*
X-4848860Y-2143125D02*
X-4833620Y-2127250D01*
X-4803140Y-2127250D01*
X-4864100Y-2063750D02*
X-4894580Y-2032000D01*
X-4803140Y-2032000D01*
X-4894580Y-1873250D02*
X-4894580Y-1952625D01*
X-4864100Y-1952625D01*
X-4864100Y-1889125D01*
X-4848860Y-1873250D01*
X-4818380Y-1873250D01*
X-4803140Y-1889125D01*
X-4803140Y-1936750D01*
X-4818380Y-1952625D01*
X-4445000Y-2413000D02*
X-4445000Y-2286000D01*
X-4508500Y-2286000D02*
X-4381500Y-2286000D01*
X-4381500Y-1778000D01*
X-4508500Y-1778000D01*
X-4508500Y-2286000D01*
X-4445000Y-1778000D02*
X-4445000Y-1651000D01*
X-4549140Y-2222500D02*
X-4640580Y-2222500D01*
X-4640580Y-2143125D01*
X-4625340Y-2127250D01*
X-4610100Y-2127250D01*
X-4594860Y-2143125D01*
X-4594860Y-2222500D01*
X-4594860Y-2143125D02*
X-4579620Y-2127250D01*
X-4549140Y-2127250D01*
X-4610100Y-2063750D02*
X-4640580Y-2032000D01*
X-4549140Y-2032000D01*
X-4625340Y-1873250D02*
X-4640580Y-1889125D01*
X-4640580Y-1936750D01*
X-4625340Y-1952625D01*
X-4564380Y-1952625D01*
X-4549140Y-1936750D01*
X-4549140Y-1889125D01*
X-4564380Y-1873250D01*
X-4579620Y-1873250D01*
X-4594860Y-1889125D01*
X-4594860Y-1952625D01*
X-4191000Y-2413000D02*
X-4191000Y-2286000D01*
X-4254500Y-2286000D02*
X-4127500Y-2286000D01*
X-4127500Y-1778000D01*
X-4254500Y-1778000D01*
X-4254500Y-2286000D01*
X-4191000Y-1778000D02*
X-4191000Y-1651000D01*
X-4295140Y-2222500D02*
X-4386580Y-2222500D01*
X-4386580Y-2143125D01*
X-4371340Y-2127250D01*
X-4356100Y-2127250D01*
X-4340860Y-2143125D01*
X-4340860Y-2222500D01*
X-4340860Y-2143125D02*
X-4325620Y-2127250D01*
X-4295140Y-2127250D01*
X-4356100Y-2063750D02*
X-4386580Y-2032000D01*
X-4295140Y-2032000D01*
X-4386580Y-1952625D02*
X-4386580Y-1873250D01*
X-4371340Y-1873250D01*
X-4295140Y-1952625D01*
X+1143000Y-4826000D02*
X+1651000Y-4826000D01*
X+1651000Y-4572000D01*
X+1143000Y-4572000D01*
X+1143000Y-4826000D01*
X+1270000Y-4531360D02*
X+1270000Y-4439920D01*
X+1349375Y-4439920D01*
X+1365250Y-4455160D01*
X+1365250Y-4470400D01*
X+1349375Y-4485640D01*
X+1365250Y-4500880D01*
X+1365250Y-4516120D01*
X+1349375Y-4531360D01*
X+1270000Y-4531360D01*
X+1270000Y-4485640D02*
X+1349375Y-4485640D01*
X+1428750Y-4470400D02*
X+1460500Y-4439920D01*
X+1460500Y-4531360D01*
X+5096000Y-4437000D02*
X+5095173Y-4416517D01*
X+5088455Y-4375550D01*
X+5074437Y-4334583D01*
X+5051659Y-4293616D01*
X+5016859Y-4252771D01*
X+4975892Y-4221155D01*
X+4934925Y-4200608D01*
X+4893958Y-4188371D01*
X+4852991Y-4183238D01*
X+4842000Y-4183000D01*
X+4588000Y-4437000D02*
X+4588827Y-4416517D01*
X+4595545Y-4375550D01*
X+4609563Y-4334583D01*
X+4632341Y-4293616D01*
X+4667141Y-4252771D01*
X+4708108Y-4221155D01*
X+4749075Y-4200608D01*
X+4790042Y-4188371D01*
X+4831009Y-4183238D01*
X+4842000Y-4183000D01*
X+4588000Y-4437000D02*
X+4588827Y-4457483D01*
X+4595545Y-4498450D01*
X+4609563Y-4539417D01*
X+4632341Y-4580384D01*
X+4667141Y-4621229D01*
X+4708108Y-4652845D01*
X+4749075Y-4673392D01*
X+4790042Y-4685629D01*
X+4831009Y-4690762D01*
X+4842000Y-4691000D01*
X+5096000Y-4437000D02*
X+5095173Y-4457483D01*
X+5088455Y-4498450D01*
X+5074437Y-4539417D01*
X+5051659Y-4580384D01*
X+5016859Y-4621229D01*
X+4975892Y-4652845D01*
X+4934925Y-4673392D01*
X+4893958Y-4685629D01*
X+4852991Y-4690762D01*
X+4842000Y-4691000D01*
X+4524500Y-4183000D02*
X+4651500Y-4183000D01*
X+4588000Y-4119500D02*
X+4588000Y-4246500D01*
X+4492750Y-4078860D02*
X+4492750Y-3987420D01*
X+4572125Y-3987420D01*
X+4588000Y-4002660D01*
X+4588000Y-4017900D01*
X+4572125Y-4033140D01*
X+4588000Y-4048380D01*
X+4588000Y-4063620D01*
X+4572125Y-4078860D01*
X+4492750Y-4078860D01*
X+4492750Y-4033140D02*
X+4572125Y-4033140D01*
X+4619750Y-3987420D02*
X+4619750Y-4063620D01*
X+4635625Y-4078860D01*
X+4699125Y-4078860D01*
X+4715000Y-4063620D01*
X+4715000Y-3987420D01*
X+4746750Y-3987420D02*
X+4842000Y-3987420D01*
X+4794375Y-3987420D02*
X+4794375Y-4078860D01*
X+4873750Y-4017900D02*
X+4905500Y-3987420D01*
X+4937250Y-3987420D01*
X+4969000Y-4017900D01*
X+4969000Y-4048380D01*
X+4937250Y-4078860D01*
X+4905500Y-4078860D01*
X+4873750Y-4048380D01*
X+4873750Y-4017900D01*
X+5000750Y-4078860D02*
X+5000750Y-3987420D01*
X+5096000Y-4078860D01*
X+5096000Y-3987420D01*
X+3167000Y-3314000D02*
X+3294000Y-3314000D01*
X+3294000Y-3377500D02*
X+3802000Y-3377500D01*
X+3802000Y-3250500D01*
X+3294000Y-3250500D01*
X+3294000Y-3377500D01*
X+3802000Y-3314000D02*
X+3929000Y-3314000D01*
X+2786000Y-3209860D02*
X+2786000Y-3118420D01*
X+2865375Y-3118420D01*
X+2881250Y-3133660D01*
X+2881250Y-3148900D01*
X+2865375Y-3164140D01*
X+2786000Y-3164140D01*
X+2865375Y-3164140D02*
X+2881250Y-3179380D01*
X+2881250Y-3209860D01*
X+3008250Y-3209860D02*
X+2913000Y-3209860D01*
X+2913000Y-3118420D01*
X+3008250Y-3118420D01*
X+2913000Y-3164140D02*
X+2976500Y-3164140D01*
X+3040000Y-3194620D02*
X+3055875Y-3209860D01*
X+3119375Y-3209860D01*
X+3135250Y-3194620D01*
X+3135250Y-3179380D01*
X+3119375Y-3164140D01*
X+3055875Y-3164140D01*
X+3040000Y-3148900D01*
X+3040000Y-3133660D01*
X+3055875Y-3118420D01*
X+3119375Y-3118420D01*
X+3135250Y-3133660D01*
X+3262250Y-3209860D02*
X+3167000Y-3209860D01*
X+3167000Y-3118420D01*
X+3262250Y-3118420D01*
X+3167000Y-3164140D02*
X+3230500Y-3164140D01*
X+3294000Y-3118420D02*
X+3389250Y-3118420D01*
X+3341625Y-3118420D02*
X+3341625Y-3209860D01*
X+3548000Y-3209860D02*
X+3548000Y-3118420D01*
X+3611500Y-3118420D01*
X+3643250Y-3148900D01*
X+3643250Y-3179380D01*
X+3611500Y-3209860D01*
X+3548000Y-3209860D01*
X+3690875Y-3118420D02*
X+3754375Y-3118420D01*
X+3722625Y-3118420D02*
X+3722625Y-3209860D01*
X+3690875Y-3209860D02*
X+3754375Y-3209860D01*
X+3802000Y-3209860D02*
X+3802000Y-3118420D01*
X+3881375Y-3118420D01*
X+3897250Y-3133660D01*
X+3897250Y-3148900D01*
X+3881375Y-3164140D01*
X+3802000Y-3164140D01*
X+3881375Y-3164140D02*
X+3897250Y-3179380D01*
X+3897250Y-3209860D01*
X+4024250Y-3209860D02*
X+3929000Y-3209860D01*
X+3929000Y-3118420D01*
X+4024250Y-3118420D01*
X+3929000Y-3164140D02*
X+3992500Y-3164140D01*
X+4056000Y-3209860D02*
X+4056000Y-3118420D01*
X+4151250Y-3209860D01*
X+4151250Y-3118420D01*
X+4278250Y-3194620D02*
X+4262375Y-3209860D01*
X+4214750Y-3209860D01*
X+4183000Y-3179380D01*
X+4183000Y-3148900D01*
X+4214750Y-3118420D01*
X+4262375Y-3118420D01*
X+4278250Y-3133660D01*
X+4715000Y-3417000D02*
X+4842000Y-3417000D01*
X+4842000Y-3480500D02*
X+5350000Y-3480500D01*
X+5350000Y-3353500D01*
X+4842000Y-3353500D01*
X+4842000Y-3480500D01*
X+5350000Y-3417000D02*
X+5477000Y-3417000D01*
X+4524500Y-3312860D02*
X+4524500Y-3221420D01*
X+4603875Y-3221420D01*
X+4619750Y-3236660D01*
X+4619750Y-3251900D01*
X+4603875Y-3267140D01*
X+4619750Y-3282380D01*
X+4619750Y-3297620D01*
X+4603875Y-3312860D01*
X+4524500Y-3312860D01*
X+4524500Y-3267140D02*
X+4603875Y-3267140D01*
X+4651500Y-3221420D02*
X+4651500Y-3297620D01*
X+4667375Y-3312860D01*
X+4730875Y-3312860D01*
X+4746750Y-3297620D01*
X+4746750Y-3221420D01*
X+4778500Y-3221420D02*
X+4873750Y-3221420D01*
X+4826125Y-3221420D02*
X+4826125Y-3312860D01*
X+4905500Y-3251900D02*
X+4937250Y-3221420D01*
X+4969000Y-3221420D01*
X+5000750Y-3251900D01*
X+5000750Y-3282380D01*
X+4969000Y-3312860D01*
X+4937250Y-3312860D01*
X+4905500Y-3282380D01*
X+4905500Y-3251900D01*
X+5032500Y-3312860D02*
X+5032500Y-3221420D01*
X+5127750Y-3312860D01*
X+5127750Y-3221420D01*
X+5286500Y-3297620D02*
X+5302375Y-3312860D01*
X+5365875Y-3312860D01*
X+5381750Y-3297620D01*
X+5381750Y-3282380D01*
X+5365875Y-3267140D01*
X+5302375Y-3267140D01*
X+5286500Y-3251900D01*
X+5286500Y-3236660D01*
X+5302375Y-3221420D01*
X+5365875Y-3221420D01*
X+5381750Y-3236660D01*
X+5508750Y-3312860D02*
X+5413500Y-3312860D01*
X+5413500Y-3221420D01*
X+5508750Y-3221420D01*
X+5413500Y-3267140D02*
X+5477000Y-3267140D01*
X+5635750Y-3297620D02*
X+5619875Y-3312860D01*
X+5572250Y-3312860D01*
X+5540500Y-3282380D01*
X+5540500Y-3251900D01*
X+5572250Y-3221420D01*
X+5619875Y-3221420D01*
X+5635750Y-3236660D01*
X+3699000Y-4437000D02*
X+3698173Y-4416517D01*
X+3691455Y-4375550D01*
X+3677437Y-4334583D01*
X+3654659Y-4293616D01*
X+3619859Y-4252771D01*
X+3578892Y-4221155D01*
X+3537925Y-4200608D01*
X+3496958Y-4188371D01*
X+3455991Y-4183238D01*
X+3445000Y-4183000D01*
X+3191000Y-4437000D02*
X+3191827Y-4416517D01*
X+3198545Y-4375550D01*
X+3212563Y-4334583D01*
X+3235341Y-4293616D01*
X+3270141Y-4252771D01*
X+3311108Y-4221155D01*
X+3352075Y-4200608D01*
X+3393042Y-4188371D01*
X+3434009Y-4183238D01*
X+3445000Y-4183000D01*
X+3191000Y-4437000D02*
X+3191827Y-4457483D01*
X+3198545Y-4498450D01*
X+3212563Y-4539417D01*
X+3235341Y-4580384D01*
X+3270141Y-4621229D01*
X+3311108Y-4652845D01*
X+3352075Y-4673392D01*
X+3393042Y-4685629D01*
X+3434009Y-4690762D01*
X+3445000Y-4691000D01*
X+3699000Y-4437000D02*
X+3698173Y-4457483D01*
X+3691455Y-4498450D01*
X+3677437Y-4539417D01*
X+3654659Y-4580384D01*
X+3619859Y-4621229D01*
X+3578892Y-4652845D01*
X+3537925Y-4673392D01*
X+3496958Y-4685629D01*
X+3455991Y-4690762D01*
X+3445000Y-4691000D01*
X+3127500Y-4183000D02*
X+3254500Y-4183000D01*
X+3191000Y-4119500D02*
X+3191000Y-4246500D01*
X+3032250Y-4078860D02*
X+3032250Y-3987420D01*
X+3111625Y-3987420D01*
X+3127500Y-4002660D01*
X+3127500Y-4017900D01*
X+3111625Y-4033140D01*
X+3127500Y-4048380D01*
X+3127500Y-4063620D01*
X+3111625Y-4078860D01*
X+3032250Y-4078860D01*
X+3032250Y-4033140D02*
X+3111625Y-4033140D01*
X+3159250Y-3987420D02*
X+3159250Y-4063620D01*
X+3175125Y-4078860D01*
X+3238625Y-4078860D01*
X+3254500Y-4063620D01*
X+3254500Y-3987420D01*
X+3286250Y-3987420D02*
X+3381500Y-3987420D01*
X+3333875Y-3987420D02*
X+3333875Y-4078860D01*
X+3413250Y-3987420D02*
X+3508500Y-3987420D01*
X+3460875Y-3987420D02*
X+3460875Y-4078860D01*
X+3540250Y-4017900D02*
X+3572000Y-3987420D01*
X+3603750Y-3987420D01*
X+3635500Y-4017900D01*
X+3635500Y-4048380D01*
X+3603750Y-4078860D01*
X+3572000Y-4078860D01*
X+3540250Y-4048380D01*
X+3540250Y-4017900D01*
X+3667250Y-4078860D02*
X+3667250Y-3987420D01*
X+3762500Y-4078860D01*
X+3762500Y-3987420D01*
M02*
